<?xml version="1.0" encoding="utf-8"?>
<!-- Generator: Adobe Illustrator 23.0.0, SVG Export Plug-In . SVG Version: 6.00 Build 0)  -->
<svg version="1.1" id="Layer_1" xmlns="http://www.w3.org/2000/svg" xmlns:xlink="http://www.w3.org/1999/xlink" x="0px" y="0px"
	 viewBox="0 0 1598.78 766" style="enable-background:new 0 0 1598.78 766;" xml:space="preserve">
<g>
	<g>
		<defs>
			<path id="SVGID_1_" d="M672.12,446.97h11.18c6.23,0,9.85,3.71,9.85,9.04c0,5.4-3.56,8.96-9.85,8.96h-11.18V446.97z M666.35,441.8
				v48.88h5.78v-20.52h10.45l15.17,20.52h6.74l-15.55-21.19c6.3-1.84,10.22-6.96,10.22-13.55c0-4.16-1.41-7.55-4.29-10.14
				c-2.82-2.67-6.6-4-11.33-4H666.35z M723.94,441.8v48.88h32.22v-5.18H729.7v-18.38h19.56v-5.19H729.7v-14.96h25.55v-5.18H723.94z
				 M827.34,441.8v5.18h17.18v43.7h5.78v-43.7h17.26v-5.18H827.34z M887.07,490.68h5.78v-48.89h-5.78V490.68z M1155.08,441.8v48.88
				h5.78v-21.63h20.59v-5.26h-20.59v-16.82h24.82v-5.18H1155.08z M1239.21,441.8v48.88h5.78v-21.63h20.59v-5.26h-20.59v-16.82h24.81
				v-5.18H1239.21z M1350.79,467.42h13.77c6.45,0,10.15,3.63,10.15,9.04c0,5.41-3.71,9.04-10.15,9.04h-13.77V467.42z
				 M1350.79,446.97h10.44c5.56,0,8.59,2.9,8.59,7.56c0,4.66-3.04,7.62-8.59,7.62h-10.44V446.97z M1345.01,441.8v48.88h20.16
				c4.74,0,8.52-1.34,11.25-3.93c2.82-2.6,4.22-6,4.22-10.14c0-6.23-3.48-11.03-9.63-12.81c3.18-2.3,4.74-5.56,4.74-9.63
				c0-3.63-1.26-6.59-3.77-8.89c-2.53-2.3-5.93-3.48-10.15-3.48H1345.01z M1408.17,446.97h11.18c6.23,0,9.85,3.71,9.85,9.04
				c0,5.4-3.56,8.96-9.85,8.96h-11.18V446.97z M1402.39,441.8v48.88h5.78v-20.52h10.44l15.18,20.52h6.74l-15.56-21.19
				c6.3-1.84,10.22-6.96,10.22-13.55c0-4.16-1.41-7.55-4.29-10.14c-2.83-2.67-6.6-4-11.33-4H1402.39z M1459.98,490.68h5.78v-48.89
				h-5.78V490.68z M606.52,448.31c-4.89,4.82-7.33,10.81-7.33,17.93c0,7.11,2.44,13.1,7.33,17.99c4.97,4.82,10.96,7.26,18.08,7.26
				c8.67,0,16.22-4.08,20.3-10.52l-4.31-3.41c-3.92,5.71-9.18,8.59-15.92,8.59c-5.56,0-10.14-1.93-13.92-5.7
				c-3.71-3.79-5.56-8.52-5.56-14.22c0-5.71,1.85-10.45,5.56-14.23c3.78-3.77,8.37-5.7,13.92-5.7c6.74,0,12,2.89,15.92,8.59
				l4.31-3.41c-4.16-6.45-11.63-10.52-20.3-10.52C617.48,440.98,611.48,443.43,606.52,448.31 M796.48,451.57l9.78,24h-19.56
				L796.48,451.57z M795.44,440.98l-21.19,49.7h6.08l4.23-9.92h23.85l4.23,9.92h6.15l-21.19-49.7H795.44z M926.34,480.46
				c-3.63-3.79-5.49-8.6-5.49-14.3c0-5.71,1.86-10.37,5.49-14.15c3.71-3.77,8.37-5.7,13.92-5.7c5.56,0,10.15,1.93,13.78,5.7
				c3.71,3.78,5.56,8.52,5.56,14.15c0,5.7-1.85,10.51-5.56,14.3c-3.63,3.77-8.22,5.7-13.78,5.7
				C934.72,486.16,930.05,484.23,926.34,480.46 M922.2,448.31c-4.89,4.82-7.34,10.81-7.34,17.93c0,7.11,2.45,13.1,7.34,17.99
				c4.89,4.82,10.89,7.26,18,7.26c7.04,0,13.03-2.45,17.99-7.26c4.97-4.89,7.41-10.88,7.41-17.99c0-7.11-2.45-13.11-7.41-17.93
				c-4.96-4.89-10.96-7.34-17.99-7.34C933.16,440.98,927.16,443.43,922.2,448.31 M987.69,440.98v49.7h5.78v-36.74l31.11,37.56h2.08
				v-49.7h-5.78v36.81l-31.1-37.63H987.69z M1093.74,480.46c-3.63-3.79-5.49-8.6-5.49-14.3c0-5.71,1.86-10.37,5.49-14.15
				c3.7-3.77,8.37-5.7,13.92-5.7c5.56,0,10.15,1.93,13.78,5.7c3.7,3.78,5.55,8.52,5.55,14.15c0,5.7-1.85,10.51-5.55,14.3
				c-3.63,3.77-8.22,5.7-13.78,5.7C1102.11,486.16,1097.44,484.23,1093.74,480.46 M1089.58,448.31c-4.89,4.82-7.33,10.81-7.33,17.93
				c0,7.11,2.44,13.1,7.33,17.99c4.89,4.82,10.9,7.26,18,7.26c7.04,0,13.04-2.45,18.01-7.26c4.96-4.89,7.41-10.88,7.41-17.99
				c0-7.11-2.45-13.11-7.41-17.93c-4.97-4.89-10.96-7.34-18.01-7.34C1100.56,440.98,1094.55,443.43,1089.58,448.31 M1302.73,451.57
				l9.78,24h-19.56L1302.73,451.57z M1301.7,440.98l-21.19,49.7h6.08l4.23-9.92h23.85l4.22,9.92h6.15l-21.18-49.7H1301.7z
				 M1495.1,448.31c-4.89,4.82-7.34,10.81-7.34,17.93c0,7.11,2.45,13.1,7.34,17.99c4.97,4.82,10.97,7.26,18.07,7.26
				c8.67,0,16.23-4.08,20.31-10.52l-4.31-3.41c-3.92,5.71-9.18,8.59-15.92,8.59c-5.55,0-10.15-1.93-13.92-5.7
				c-3.71-3.79-5.56-8.52-5.56-14.22c0-5.71,1.85-10.45,5.56-14.23c3.77-3.77,8.37-5.7,13.92-5.7c6.74,0,12,2.89,15.92,8.59
				l4.31-3.41c-4.16-6.45-11.63-10.52-20.31-10.52C1506.07,440.98,1500.07,443.43,1495.1,448.31 M1559.74,444.53
				c-2.89,2.3-4.3,5.41-4.3,9.18c0,6.22,4.15,9.77,11.03,13.11l5.48,2.59c5.86,2.74,8.15,4.45,8.15,8.59c0,4.97-4,8.15-9.85,8.15
				c-5.41,0-10-2.82-13.62-8.37l-4.3,3.19c3.85,6.52,10.37,10.52,17.99,10.52c4.6,0,8.37-1.26,11.33-3.79
				c2.97-2.51,4.45-5.78,4.45-9.85c0-6.23-3.71-10-11.4-13.62l-5.41-2.61c-2.89-1.4-3.79-1.78-5.56-3.18
				c-1.69-1.41-2.29-2.89-2.29-5.04c0-4.52,3.85-7.11,8.67-7.11c4.74,0,8.44,2.08,11.18,6.15l4.22-3.19
				c-3.19-4.97-8.81-8.3-15.34-8.3C1566.11,440.98,1562.63,442.16,1559.74,444.53 M696.29,225.26l-45.41,78.21l-45.41-78.21h-22.2
				l57.78,97.39l-41.26,69.13h19.68l99.03-166.51H696.29z M843.08,232.76c0,4.13,3.35,7.49,7.5,7.49c4.13,0,7.49-3.36,7.49-7.49
				c0-4.15-3.36-7.5-7.49-7.5C846.43,225.26,843.08,228.61,843.08,232.76 M869.83,232.76c0,4.13,3.36,7.49,7.49,7.49
				c4.15,0,7.5-3.36,7.5-7.49c0-4.15-3.35-7.5-7.5-7.5C873.19,225.26,869.83,228.61,869.83,232.76 M910.86,225.26v101.67
				c0,32.3-18.93,49.46-46.18,49.46c-27.5,0-46.67-17.16-46.67-49.46V225.26h-19.68v100.41c0,21.71,6.05,38.6,18.42,50.72
				c12.36,12.1,28.25,18.16,47.94,18.16c19.42,0,35.07-6.06,47.43-18.16c12.36-12.36,18.41-29.27,18.41-50.72V225.26H910.86z
				 M1026.79,222.49v169.28h19.68V266.63l105.96,127.92h7.07V225.26h-19.68v125.38l-105.97-128.15H1026.79z M1268.06,234.59
				c-9.84,7.82-14.64,18.42-14.64,31.28c0,21.19,14.13,33.3,37.6,44.66l18.67,8.83c19.94,9.33,27.75,15.13,27.75,29.27
				c0,16.9-13.62,27.75-33.55,27.75c-18.42,0-34.06-9.59-46.43-28.51l-14.63,10.84c13.12,22.21,35.32,35.83,61.3,35.83
				c15.65,0,28.51-4.29,38.6-12.87c10.09-8.58,15.14-19.68,15.14-33.56c0-21.19-12.62-34.05-38.86-46.42l-18.41-8.83
				c-9.84-4.79-12.87-6.06-18.93-10.85c-5.8-4.79-7.82-9.84-7.82-17.15c0-15.39,13.12-24.22,29.51-24.22
				c16.15,0,28.77,7.07,38.1,20.95l14.38-10.85c-10.85-16.91-30.03-28.25-52.22-28.25C1289.75,222.49,1277.9,226.52,1268.06,234.59
				 M1506.15,258.56l33.31,81.74h-66.6L1506.15,258.56z M1502.62,222.49l-72.16,169.28h20.69l14.38-33.8h81.24l14.38,33.8h20.94
				l-72.15-169.28H1502.62z M170.4,694.88c-3.34-7.26-5.23-15.08-6.36-22.97c-3.34-23.45-1.06-41.48,3.31-65.21
				c2.67-14.51,6.21-28.83,10.34-42.98c2.8-9.58,3.38-11.37,6.4-20.14c2.77-8.07,5.72-16.08,8.82-24.03
				c6.83-17.48,14.39-34.67,22.56-51.56c0.98-2.05,1.98-4.09,2.99-6.12c0.48-0.98,0.97-1.96,1.46-2.94
				c0.13-0.25,0.27-0.52,0.44-0.86c2.28-4.47,4.6-8.92,6.95-13.35c5.03-9.44,10.22-18.78,15.6-28.02c5.41-9.3,10.98-18.5,16.71-27.6
				c1.36-2.17,2.74-4.34,4.12-6.5c0.45-0.7,1.91-2.94,2.52-3.86c3.1-4.71,6.23-9.41,9.41-14.06c12.98-18.99,26.63-37.54,40.91-55.57
				c0.8-0.99,3.3-4.1,3.98-4.94c1.8-2.22,3.61-4.44,5.44-6.64c4.19-5.09,8.45-10.14,12.75-15.16c8.24-9.6,16.65-19.05,25.23-28.35
				c2.04-2.2,4.08-4.4,6.13-6.59c1.03-1.1,2.07-2.2,3.1-3.3c0.04-0.03,0.06-0.06,0.1-0.09c0.32,1.09,0.65,2.17,0.96,3.25
				c24.59,83.3,17.98,177.76-10.02,259.3c-8.53,24.84-19.02,49.01-31.73,71.81c-6.97,12.51-13.32,22.84-20.73,33.54
				c-9.17,13.25-16.48,22.73-25.72,33.5c-10.57,12.34-18.07,20.23-29.63,31.26c-2.74,2.61-5.5,5.19-8.29,7.74
				c-1.62,1.46-3.24,2.92-4.86,4.38c-0.21,0.19-1.06,0.93-1.72,1.5c-2.19,1.84-4.38,3.68-6.62,5.44c-2.18,1.72-4.47,3.31-6.67,5.01
				c-1.28,0.79-2.52,1.64-3.79,2.44c-1.98,1.22-3.99,2.34-6.01,3.48c-0.82,0.46-1.68,0.88-2.51,1.31c-0.22,0.09-0.43,0.18-0.73,0.29
				c-3.76,1.48-7.46,2.78-11.36,3.86c-0.07,0.02-0.12,0.03-0.18,0.06c-0.79,0.12-1.57,0.26-2.37,0.32
				c-1.64,0.13-3.27,0.28-4.93,0.24c-3-0.05-5.92-0.5-8.8-1.32c-0.44-0.16-1.5-0.55-2.31-1.03c-1.34-0.77-2.68-1.48-3.94-2.38
				c-2.42-1.75-4.56-3.86-6.45-6.18c-0.99-1.24-1.91-2.55-2.75-3.9c-0.42-0.65-0.79-1.33-1.18-2c-0.28-0.46-0.43-0.72-0.53-0.88
				c0.03,0.03,0.05,0.06,0.06,0.06C170.52,695.14,170.49,695.07,170.4,694.88 M45.32,109.46c-0.04,0.02-0.07,0.05-0.11,0.07
				C45.24,109.51,45.28,109.49,45.32,109.46 M640.09,13.25c-85.68,48.45-165.11,107.3-236.27,175.12
				c-1.39-3.74-2.84-7.46-4.37-11.17c-8.18-19.79-19.09-46.83-42.52-51.99c-13.03-2.86-26.97,3.51-37.68,10.37
				c-21.14,13.54-38.7,32.39-54.31,51.86c-23.36,29.1-42.2,60.89-62.58,92.05c-9.43,14.41-19.38,28.51-29.99,42.07
				c-0.16,0.2-0.29,0.38-0.41,0.53c-0.16,0.19-0.35,0.42-0.61,0.76c-1.2,1.46-2.38,2.92-3.6,4.37c-2.03,2.43-4.08,4.85-6.17,7.23
				c-1.9,2.16-3.83,4.29-5.78,6.41c0.11-0.19-4.53,4.65-5.3,5.41c-1.85,1.81-3.77,3.54-5.63,5.34c-0.24,0.24-0.45,0.43-0.63,0.61
				c-0.76,0.63-1.5,1.27-2.27,1.9c-1.97,1.62-3.99,3.16-6.01,4.72c-0.7,0.54-1.42,1.05-2.14,1.57c-0.14,0.09-0.29,0.17-0.49,0.3
				c-1.85,1.13-3.67,2.31-5.56,3.38c-0.68,0.38-3.16,1.58-3.68,1.87c-2.92,1.27-5.89,2.37-8.96,3.24c-2.42,0.68-2.39,0.76-6.45,0.95
				c-3.01,0.14-5.99-0.06-8.94-0.62c-3.86-0.73-8.3-2.94-12.38-6.27c-22.45-18.33-24.04-55.89-23.59-82.5
				c0.72-42.55,11.63-85.29,28.3-123.91c9.89-22.92,24.66-52.51,19.71-78.47C108.66,62,94.91,58.53,80.43,62.95
				c-23.37,7.13-43.01,26.7-59.06,44.17c-3.79,4.13-17.09,20.06-10.92,26.07c6.03,5.89,21.69-11.6,24.3-14.44
				c0.06-0.07,0.11-0.11,0.17-0.17c0.91-0.91,1.81-1.83,2.75-2.72c0.77-0.74,1.58-1.46,2.35-2.2h0.01c1.72-1.39,3.46-2.79,5.23-4.12
				c0.06-0.04,0.13-0.09,0.2-0.14c0.02-0.02,0.05-0.02,0.06-0.04c0.7-0.5,1.98-1.29,1.2-0.79c0.49-0.31,0.98-0.61,1.48-0.89
				c4.9-2.75,8.73-5.04,15.5-4.6c13.63,0.89,11.62,21.09,9.26,32.02c-5.54,25.52-18.94,48.76-27.13,73.49
				C38.87,229.6,33.31,251,29.98,272.9c-6.2,40.57-11.68,154.83,59.7,137.59c17.34-4.19,33.33-15.28,46.84-26.53
				c23.02-19.18,42.7-41.82,60.89-65.55c21.72-28.33,39.49-59.09,59.22-88.75c4.39-6.6,8.89-13.12,13.54-19.55
				c1.97-2.73,3.96-5.44,5.99-8.13c1.1-1.46,2.22-2.9,3.33-4.35c0.32-0.42,0.54-0.72,0.73-0.97c0.06-0.06,0.2-0.22,0.5-0.57
				c3.5-4.25,7.08-8.42,10.75-12.51c0.43-0.47,0.73-0.82,0.98-1.11c0.17-0.14,0.35-0.31,0.61-0.56c2-1.87,3.97-3.79,5.94-5.67
				c0.43-0.37,0.87-0.75,1.33-1.09c1.35-1.05,2.71-2.07,4.08-3.09c0.46-0.3,1.09-0.68,1.76-1.06c0.57-0.32,2.47-1.31,3.31-1.78
				c0.79-0.32,1.82-0.76,2.12-0.85c1.39-0.46,2.76-0.93,4.18-1.3c0.18-0.05,0.31-0.08,0.42-0.12c0.17-0.01,0.38-0.02,0.68-0.04
				c1.43-0.12,2.83-0.24,4.27-0.2c8.48,0.27,15.36,4.9,21.84,12.41c10.85,12.6,18.33,29.13,24.15,45.73
				c-5.57,5.8-11.09,11.65-16.54,17.56c-67.46,73.12-125.63,155.56-169.08,245.15c-28.62,59.01-53.47,124.49-56.17,190.73
				c-1.16,28.23,3.5,77.32,41.93,76.66c22.14-0.38,43.19-14.59,60.01-27.57c49.67-38.34,91.83-88.93,124.52-142.23
				c55.45-90.41,82.53-199.01,72.75-304.86c-2.31-24.94-7-49.24-14.28-72.91c2.46-2.33,4.89-4.68,7.37-6.97
				c20.37-18.94,37.97-34.04,60.39-51.86c22.53-17.91,45.73-35.01,69.64-51.05c25.04-16.78,50.73-32.54,76.96-47.38
				c10.53-5.95,20.4-17.45,24.91-28.65c2.61-6.48,1.27-10.4-2.86-10.4C644.95,11.06,642.73,11.76,640.09,13.25"/>
		</defs>
		<use xlink:href="#SVGID_1_"  style="overflow:visible;fill:#202020;"/>
		<clipPath id="SVGID_2_">
			<use xlink:href="#SVGID_1_"  style="overflow:visible;"/>
		</clipPath>
	</g>
</g>
</svg>
